<svg width="39" height="39" viewBox="0 0 39 39" fill="none" xmlns="http://www.w3.org/2000/svg">
<path d="M7.44738 28.1467C5.77363 26.3689 4.875 24.375 4.875 21.1429C4.875 15.4554 8.86762 10.3578 14.6737 7.8374L16.1249 10.0767C10.7055 13.0082 9.646 16.8123 9.2235 19.2108C10.0961 18.759 11.2385 18.6014 12.3581 18.7054C15.2896 18.9768 17.6004 21.3834 17.6004 24.375C17.6004 25.8834 17.0012 27.3301 15.9345 28.3967C14.8679 29.4633 13.4213 30.0625 11.9129 30.0625C11.0787 30.0552 10.2543 29.8821 9.48766 29.5532C8.72103 29.2243 8.02748 28.7461 7.44738 28.1467ZM23.6974 28.1467C22.0236 26.3689 21.125 24.375 21.125 21.1429C21.125 15.4554 25.1176 10.3578 30.9237 7.8374L32.3749 10.0767C26.9555 13.0082 25.896 16.8123 25.4735 19.2108C26.3461 18.759 27.4885 18.6014 28.6081 18.7054C31.5396 18.9768 33.8504 21.3834 33.8504 24.375C33.8504 25.8834 33.2512 27.3301 32.1845 28.3967C31.1179 29.4633 29.6713 30.0625 28.1629 30.0625C27.3287 30.0552 26.5043 29.8821 25.7377 29.5532C24.971 29.2243 24.2775 28.7461 23.6974 28.1467Z" fill="#272727"/>
</svg>
